# MagicaVoxel @ Ephtracy

# group
o 

# material
mtllib base2.mtl
usemtl palette

# normals
vn -1 0 0
vn 1 0 0
vn 0 0 1
vn 0 0 -1
vn 0 -1 0
vn 0 1 0

# texcoords
vt 0.0292969 0.5
vt 0.521484 0.5
vt 0.525391 0.5
vt 0.837891 0.5
vt 0.955078 0.5
vt 0.958984 0.5
vt 0.990234 0.5

# verts
v -0.5 0.6 0.5
v -0.5 0.6 0.2
v -0.5 0.7 0.5
v -0.5 0.7 0.2
v -0.5 0.7 0.1
v -0.5 0.8 0.2
v -0.5 0.8 0.1
v -0.4 0.5 0.6
v -0.4 0.5 0.5
v -0.4 0.6 0.6
v -0.4 0.6 0.5
v -0.4 0.7 0.1
v -0.4 0.7 0
v -0.4 0.8 0.1
v -0.4 0.8 0
v -0.4 1.2 0.4
v -0.4 1.2 -0.4
v -0.4 1.3 0.5
v -0.4 1.3 0.4
v -0.4 1.3 -0.4
v -0.4 1.3 -0.5
v -0.4 2 0.5
v -0.4 2 0.4
v -0.4 2 0.2
v -0.4 2 -0.2
v -0.4 2 -0.4
v -0.4 2 -0.5
v -0.4 2.1 0.4
v -0.4 2.1 0.2
v -0.4 2.1 -0.2
v -0.4 2.1 -0.4
v -0.3 0.4 0.7
v -0.3 0.4 0.6
v -0.3 0.5 0.7
v -0.3 0.5 0.6
v -0.3 0.7 0.4
v -0.3 0.7 0.1
v -0.3 0.7 0
v -0.3 0.7 -0.4
v -0.3 0.8 0.4
v -0.3 0.8 0.1
v -0.3 0.8 0
v -0.3 0.8 -0.4
v -0.3 0.9 0.4
v -0.3 0.9 0.3
v -0.3 0.9 -0.3
v -0.3 0.9 -0.4
v -0.3 1 0.4
v -0.3 1 0.3
v -0.3 1 0.2
v -0.3 1 -0.2
v -0.3 1 -0.3
v -0.3 1 -0.4
v -0.3 1.1 0.3
v -0.3 1.1 0.2
v -0.3 1.1 -0.2
v -0.3 1.1 -0.3
v -0.3 1.2 0.5
v -0.3 1.2 0.4
v -0.3 1.2 0.3
v -0.3 1.2 0.2
v -0.3 1.2 -0.2
v -0.3 1.2 -0.3
v -0.3 1.2 -0.4
v -0.3 1.2 -0.5
v -0.3 1.3 0.5
v -0.3 1.3 0.4
v -0.3 1.3 -0.4
v -0.3 1.3 -0.5
v -0.3 2 0.5
v -0.3 2 0.4
v -0.3 2 -0.4
v -0.3 2 -0.5
v -0.3 2.1 0.5
v -0.3 2.1 0.4
v -0.3 2.1 -0.4
v -0.3 2.1 -0.5
v -0.2 0.8 0.3
v -0.2 0.8 -0.3
v -0.2 0.9 0.3
v -0.2 0.9 -0.3
v -0.2 1 0.4
v -0.2 1 0.3
v -0.2 1 0.2
v -0.2 1 -0.2
v -0.2 1 -0.3
v -0.2 1 -0.4
v -0.2 1.1 0.3
v -0.2 1.1 0.2
v -0.2 1.1 -0.2
v -0.2 1.1 -0.3
v -0.2 1.2 0.4
v -0.2 1.2 0.3
v -0.2 1.2 -0.3
v -0.2 1.2 -0.4
v -0.2 2.1 0.5
v -0.2 2.1 0.2
v -0.2 2.1 -0.2
v -0.2 2.1 -0.5
v -0.2 2.2 0.5
v -0.2 2.2 0.2
v -0.2 2.2 -0.2
v -0.2 2.2 -0.5
v -0.1 2.2 0.5
v -0.1 2.2 0.3
v -0.1 2.2 -0.3
v -0.1 2.2 -0.5
v -0.1 2.3 0.4
v -0.1 2.3 0.3
v -0.1 2.3 -0.3
v -0.1 2.3 -0.4
v -0.1 2.4 0.5
v -0.1 2.4 0.4
v -0.1 2.4 -0.4
v -0.1 2.4 -0.5
v 0 0.4 0.2
v 0 0.4 0.1
v 0 0.4 -0.1
v 0 0.4 -0.2
v 0 0.7 0.2
v 0 0.7 0.1
v 0 0.7 -0.1
v 0 0.7 -0.2
v 0 0.8 0.6
v 0 0.8 0.5
v 0 0.8 0.2
v 0 0.8 0.1
v 0 0.8 -0.1
v 0 0.8 -0.2
v 0 0.8 -0.5
v 0 0.8 -0.6
v 0 0.9 0.6
v 0 0.9 0.5
v 0 0.9 0.4
v 0 0.9 -0.4
v 0 0.9 -0.5
v 0 0.9 -0.6
v 0 1 0.5
v 0 1 0.4
v 0 1 0.3
v 0 1 -0.3
v 0 1 -0.4
v 0 1 -0.5
v 0 1.1 0.4
v 0 1.1 0.3
v 0 1.1 -0.3
v 0 1.1 -0.4
v 0.1 0.7 0.3
v 0.1 0.7 0.2
v 0.1 0.7 -0.2
v 0.1 0.7 -0.3
v 0.1 0.8 0.3
v 0.1 0.8 0.2
v 0.1 0.8 -0.2
v 0.1 0.8 -0.3
v 0.2 0.7 0.2
v 0.2 0.7 -0.2
v 0.2 0.8 0.2
v 0.2 0.8 -0.2
v 0.2 1.1 0.3
v 0.2 1.1 0.2
v 0.2 1.1 -0.2
v 0.2 1.1 -0.3
v 0.2 1.2 -0.3
v 0.2 1.3 0.3
v 0.2 1.3 0.2
v 0.2 1.3 -0.2
v 0.2 1.3 -0.3
v 0.3 1 0.4
v 0.3 1 0.3
v 0.3 1 -0.3
v 0.3 1 -0.4
v 0.3 1.1 0.4
v 0.3 1.1 0.3
v 0.3 1.1 -0.3
v 0.3 1.1 -0.4
v -0.4 0.6 0.5
v -0.4 0.6 0.2
v -0.4 0.7 0.5
v -0.4 0.7 0.2
v -0.4 0.7 0.1
v -0.4 0.8 0.2
v -0.4 0.8 0.1
v -0.3 0.5 0.6
v -0.3 0.5 0.5
v -0.3 0.6 0.6
v -0.3 0.6 0.5
v -0.2 0.4 0.7
v -0.2 0.4 0.6
v -0.2 0.5 0.7
v -0.2 0.5 0.6
v -0.2 0.7 0.3
v -0.2 0.7 -0.3
v -0.2 0.8 0.3
v -0.2 0.8 -0.3
v -0.2 0.9 0.4
v -0.2 0.9 0.3
v -0.2 0.9 -0.3
v -0.2 0.9 -0.4
v -0.2 1 0.4
v -0.2 1 0.3
v -0.2 1 -0.3
v -0.2 1 -0.4
v -0.1 1 0.4
v -0.1 1 0.3
v -0.1 1 -0.3
v -0.1 1 -0.4
v -0.1 1.1 0.4
v -0.1 1.1 0.3
v -0.1 1.1 -0.3
v -0.1 1.1 -0.4
v 0 1.2 0.3
v 0 1.2 0.2
v 0 1.2 -0.2
v 0 1.2 -0.3
v 0 1.3 0.3
v 0 1.3 0.2
v 0 1.3 -0.2
v 0 1.3 -0.3
v 0 2.2 0.5
v 0 2.2 0.3
v 0 2.2 -0.3
v 0 2.2 -0.5
v 0 2.3 0.4
v 0 2.3 0.3
v 0 2.3 -0.3
v 0 2.3 -0.4
v 0 2.4 0.5
v 0 2.4 0.4
v 0 2.4 -0.4
v 0 2.4 -0.5
v 0.1 0.5 0.2
v 0.1 0.5 0.1
v 0.1 0.5 -0.1
v 0.1 0.5 -0.2
v 0.1 0.7 0.2
v 0.1 0.7 0.1
v 0.1 0.7 -0.1
v 0.1 0.7 -0.2
v 0.1 0.8 0.6
v 0.1 0.8 0.5
v 0.1 0.8 0.2
v 0.1 0.8 0.1
v 0.1 0.8 -0.1
v 0.1 0.8 -0.2
v 0.1 0.8 -0.5
v 0.1 0.8 -0.6
v 0.1 0.9 0.6
v 0.1 0.9 0.5
v 0.1 0.9 0.4
v 0.1 0.9 -0.4
v 0.1 0.9 -0.5
v 0.1 0.9 -0.6
v 0.1 1 0.5
v 0.1 1 0.4
v 0.1 1 0.3
v 0.1 1 -0.3
v 0.1 1 -0.4
v 0.1 1 -0.5
v 0.1 1.1 0.4
v 0.1 1.1 0.3
v 0.1 1.1 0.2
v 0.1 1.1 -0.2
v 0.1 1.1 -0.3
v 0.1 1.1 -0.4
v 0.1 1.2 0.3
v 0.1 1.2 0.2
v 0.1 1.2 -0.2
v 0.1 1.2 -0.3
v 0.1 2.1 0.5
v 0.1 2.1 0.2
v 0.1 2.1 -0.2
v 0.1 2.1 -0.5
v 0.1 2.2 0.5
v 0.1 2.2 0.2
v 0.1 2.2 -0.2
v 0.1 2.2 -0.5
v 0.2 0.4 0.2
v 0.2 0.4 0.1
v 0.2 0.4 -0.1
v 0.2 0.4 -0.2
v 0.2 0.5 0.2
v 0.2 0.5 0.1
v 0.2 0.5 -0.1
v 0.2 0.5 -0.2
v 0.2 0.8 0.3
v 0.2 0.8 -0.3
v 0.2 1 0.3
v 0.2 1 0.2
v 0.2 1 -0.2
v 0.2 1 -0.3
v 0.2 1.2 0.5
v 0.2 1.2 0.4
v 0.2 1.2 -0.4
v 0.2 1.2 -0.5
v 0.2 1.3 0.5
v 0.2 1.3 0.4
v 0.2 1.3 0.2
v 0.2 1.3 -0.2
v 0.2 1.3 -0.4
v 0.2 1.3 -0.5
v 0.3 0.7 0.4
v 0.3 0.7 -0.4
v 0.3 0.8 0.4
v 0.3 0.8 -0.4
v 0.3 1 0.3
v 0.3 1 0.2
v 0.3 1 -0.2
v 0.3 1 -0.3
v 0.3 1.2 0.3
v 0.3 1.3 0.5
v 0.3 1.3 0.4
v 0.3 1.3 0.2
v 0.3 1.3 -0.2
v 0.3 1.3 -0.4
v 0.3 1.3 -0.5
v 0.3 1.4 0.3
v 0.3 1.4 0.2
v 0.3 1.4 -0.2
v 0.3 1.4 -0.3
v 0.3 1.4 -0.4
v 0.3 1.5 0.4
v 0.3 1.5 0.3
v 0.3 1.5 0.2
v 0.3 1.5 0.1
v 0.3 1.5 -0.1
v 0.3 1.5 -0.2
v 0.3 1.5 -0.3
v 0.3 1.5 -0.4
v 0.3 1.6 -0.3
v 0.3 1.6 -0.4
v 0.3 1.7 0.4
v 0.3 1.7 0.3
v 0.3 1.7 0.2
v 0.3 1.7 0.1
v 0.3 1.7 0
v 0.3 1.7 -0.1
v 0.3 1.7 -0.2
v 0.3 1.7 -0.3
v 0.3 1.7 -0.4
v 0.3 1.8 0.4
v 0.3 1.8 0.3
v 0.3 1.8 0.2
v 0.3 1.8 0
v 0.3 1.8 -0.2
v 0.3 1.8 -0.3
v 0.3 1.8 -0.4
v 0.3 1.9 0.4
v 0.3 1.9 0.3
v 0.3 1.9 -0.3
v 0.3 1.9 -0.4
v 0.3 2 0.4
v 0.3 2 0.3
v 0.3 2 0.2
v 0.3 2 -0.2
v 0.3 2 -0.3
v 0.3 2 -0.4
v 0.3 2.1 0.5
v 0.3 2.1 0.2
v 0.3 2.1 -0.2
v 0.3 2.1 -0.5
v 0.4 1 0.4
v 0.4 1 0.3
v 0.4 1 -0.3
v 0.4 1 -0.4
v 0.4 1.2 0.4
v 0.4 1.2 0.3
v 0.4 1.4 -0.3
v 0.4 1.4 -0.4
v 0.4 1.5 0.4
v 0.4 1.5 0.3
v 0.4 1.5 -0.3
v 0.4 1.5 -0.4
v 0.4 1.6 -0.3
v 0.4 1.6 -0.4
v 0.4 1.7 0.4
v 0.4 1.7 0.3
v 0.4 1.7 0.2
v 0.4 1.7 0
v 0.4 1.7 -0.2
v 0.4 1.7 -0.3
v 0.4 1.7 -0.4
v 0.4 1.8 0.3
v 0.4 1.8 0.2
v 0.4 1.8 0
v 0.4 1.8 -0.2
v 0.4 1.8 -0.3
v -0.3 0.4 0.7
v -0.3 0.5 0.7
v -0.2 0.4 0.7
v -0.2 0.5 0.7
v -0.4 0.5 0.6
v -0.4 0.6 0.6
v -0.3 0.5 0.6
v -0.3 0.6 0.6
v 0 0.8 0.6
v 0 0.9 0.6
v 0.1 0.8 0.6
v 0.1 0.9 0.6
v -0.5 0.6 0.5
v -0.5 0.7 0.5
v -0.4 0.6 0.5
v -0.4 0.7 0.5
v -0.4 1.3 0.5
v -0.4 2 0.5
v -0.3 1.2 0.5
v -0.3 1.3 0.5
v -0.3 2 0.5
v -0.3 2.1 0.5
v -0.2 2.1 0.5
v -0.2 2.2 0.5
v -0.1 2.2 0.5
v -0.1 2.4 0.5
v 0 0.9 0.5
v 0 1 0.5
v 0 2.2 0.5
v 0 2.4 0.5
v 0.1 0.9 0.5
v 0.1 1 0.5
v 0.1 2.1 0.5
v 0.1 2.2 0.5
v 0.2 1.2 0.5
v 0.2 1.3 0.5
v 0.3 1.3 0.5
v 0.3 2.1 0.5
v -0.4 1.2 0.4
v -0.4 1.3 0.4
v -0.4 2 0.4
v -0.4 2.1 0.4
v -0.3 0.7 0.4
v -0.3 0.8 0.4
v -0.3 0.9 0.4
v -0.3 1 0.4
v -0.3 1.2 0.4
v -0.3 1.3 0.4
v -0.3 2 0.4
v -0.3 2.1 0.4
v -0.2 0.9 0.4
v -0.2 1 0.4
v -0.2 1.2 0.4
v -0.1 1 0.4
v -0.1 1.1 0.4
v 0 1 0.4
v 0 1.1 0.4
v 0.1 1 0.4
v 0.1 1.1 0.4
v 0.2 1.2 0.4
v 0.2 1.3 0.4
v 0.3 0.7 0.4
v 0.3 0.8 0.4
v 0.3 1 0.4
v 0.3 1.1 0.4
v 0.3 1.2 0.4
v 0.3 1.3 0.4
v 0.3 1.5 0.4
v 0.3 1.7 0.4
v 0.4 1 0.4
v 0.4 1.2 0.4
v 0.4 1.5 0.4
v 0.4 1.7 0.4
v -0.3 1 0.3
v -0.3 1.1 0.3
v -0.3 1.2 0.3
v -0.2 0.8 0.3
v -0.2 0.9 0.3
v -0.2 1 0.3
v -0.2 1.1 0.3
v -0.2 1.2 0.3
v -0.1 1 0.3
v -0.1 1.1 0.3
v 0 1 0.3
v 0 1.1 0.3
v 0.1 1 0.3
v 0.1 1.1 0.3
v 0.2 0.8 0.3
v 0.2 1 0.3
v 0.2 1.1 0.3
v 0.3 1 0.3
v 0.3 1.1 0.3
v 0.3 1.7 0.3
v 0.3 1.8 0.3
v 0.4 1.7 0.3
v 0.4 1.8 0.3
v -0.5 0.7 0.2
v -0.5 0.8 0.2
v -0.4 0.7 0.2
v -0.4 0.8 0.2
v 0 0.4 0.2
v 0 0.7 0.2
v 0 0.8 0.2
v 0 1.2 0.2
v 0 1.3 0.2
v 0.1 0.5 0.2
v 0.1 0.7 0.2
v 0.1 0.8 0.2
v 0.1 1.1 0.2
v 0.1 1.2 0.2
v 0.1 1.3 0.2
v 0.2 0.4 0.2
v 0.2 0.5 0.2
v 0.2 1.1 0.2
v 0.2 1.3 0.2
v -0.4 0.7 0.1
v -0.4 0.8 0.1
v -0.3 0.7 0.1
v -0.3 0.8 0.1
v 0.3 1.7 0
v 0.3 1.8 0
v 0.4 1.7 0
v 0.4 1.8 0
v 0 0.4 -0.1
v 0 0.7 -0.1
v 0 0.8 -0.1
v 0.1 0.5 -0.1
v 0.1 0.7 -0.1
v 0.1 0.8 -0.1
v 0.2 0.4 -0.1
v 0.2 0.5 -0.1
v -0.4 2 -0.2
v -0.4 2.1 -0.2
v -0.3 1 -0.2
v -0.3 1.1 -0.2
v -0.2 1 -0.2
v -0.2 1.1 -0.2
v -0.2 2.1 -0.2
v -0.2 2.2 -0.2
v 0.1 0.7 -0.2
v 0.1 0.8 -0.2
v 0.1 2.1 -0.2
v 0.1 2.2 -0.2
v 0.2 0.7 -0.2
v 0.2 0.8 -0.2
v 0.2 1 -0.2
v 0.2 1.3 -0.2
v 0.3 1 -0.2
v 0.3 1.3 -0.2
v 0.3 2 -0.2
v 0.3 2.1 -0.2
v -0.3 0.9 -0.3
v -0.3 1 -0.3
v -0.2 0.7 -0.3
v -0.2 0.8 -0.3
v -0.2 0.9 -0.3
v -0.2 1 -0.3
v -0.1 2.2 -0.3
v -0.1 2.3 -0.3
v 0 1.2 -0.3
v 0 1.3 -0.3
v 0 2.2 -0.3
v 0 2.3 -0.3
v 0.1 0.7 -0.3
v 0.1 0.8 -0.3
v 0.1 1.1 -0.3
v 0.1 1.2 -0.3
v 0.2 1.1 -0.3
v 0.2 1.2 -0.3
v 0.2 1.3 -0.3
v 0.3 1 -0.3
v 0.3 1.4 -0.3
v 0.3 1.5 -0.3
v 0.3 1.6 -0.3
v 0.3 1.7 -0.3
v 0.4 1 -0.3
v 0.4 1.4 -0.3
v 0.4 1.5 -0.3
v 0.4 1.6 -0.3
v 0.4 1.7 -0.3
v -0.1 2.3 -0.4
v -0.1 2.4 -0.4
v 0 0.9 -0.4
v 0 1 -0.4
v 0 2.3 -0.4
v 0 2.4 -0.4
v 0.1 0.9 -0.4
v 0.1 1 -0.4
v 0 0.8 -0.5
v 0 0.9 -0.5
v 0.1 0.8 -0.5
v 0.1 0.9 -0.5
v -0.3 0.4 0.6
v -0.3 0.5 0.6
v -0.2 0.4 0.6
v -0.2 0.5 0.6
v -0.4 0.5 0.5
v -0.4 0.6 0.5
v -0.3 0.5 0.5
v -0.3 0.6 0.5
v 0 0.8 0.5
v 0 0.9 0.5
v 0.1 0.8 0.5
v 0.1 0.9 0.5
v -0.1 2.3 0.4
v -0.1 2.4 0.4
v 0 0.9 0.4
v 0 1 0.4
v 0 2.3 0.4
v 0 2.4 0.4
v 0.1 0.9 0.4
v 0.1 1 0.4
v -0.3 0.9 0.3
v -0.3 1 0.3
v -0.2 0.7 0.3
v -0.2 0.8 0.3
v -0.2 0.9 0.3
v -0.2 1 0.3
v -0.1 2.2 0.3
v -0.1 2.3 0.3
v 0 1.2 0.3
v 0 1.3 0.3
v 0 2.2 0.3
v 0 2.3 0.3
v 0.1 0.7 0.3
v 0.1 0.8 0.3
v 0.1 1.1 0.3
v 0.1 1.2 0.3
v 0.2 1.1 0.3
v 0.2 1.3 0.3
v 0.3 1 0.3
v 0.3 1.2 0.3
v 0.3 1.4 0.3
v 0.3 1.5 0.3
v 0.3 1.7 0.3
v 0.4 1 0.3
v 0.4 1.2 0.3
v 0.4 1.5 0.3
v 0.4 1.7 0.3
v -0.5 0.6 0.2
v -0.5 0.7 0.2
v -0.4 0.6 0.2
v -0.4 0.7 0.2
v -0.4 2 0.2
v -0.4 2.1 0.2
v -0.3 1 0.2
v -0.3 1.1 0.2
v -0.2 1 0.2
v -0.2 1.1 0.2
v -0.2 2.1 0.2
v -0.2 2.2 0.2
v 0.1 0.7 0.2
v 0.1 0.8 0.2
v 0.1 2.1 0.2
v 0.1 2.2 0.2
v 0.2 0.7 0.2
v 0.2 0.8 0.2
v 0.2 1 0.2
v 0.2 1.3 0.2
v 0.3 1 0.2
v 0.3 1.3 0.2
v 0.3 1.7 0.2
v 0.3 1.8 0.2
v 0.3 2 0.2
v 0.3 2.1 0.2
v 0.4 1.7 0.2
v 0.4 1.8 0.2
v -0.5 0.7 0.1
v -0.5 0.8 0.1
v -0.4 0.7 0.1
v -0.4 0.8 0.1
v 0 0.4 0.1
v 0 0.7 0.1
v 0 0.8 0.1
v 0.1 0.5 0.1
v 0.1 0.7 0.1
v 0.1 0.8 0.1
v 0.2 0.4 0.1
v 0.2 0.5 0.1
v -0.4 0.7 0
v -0.4 0.8 0
v -0.3 0.7 0
v -0.3 0.8 0
v 0 0.4 -0.2
v 0 0.7 -0.2
v 0 0.8 -0.2
v 0 1.2 -0.2
v 0 1.3 -0.2
v 0.1 0.5 -0.2
v 0.1 0.7 -0.2
v 0.1 0.8 -0.2
v 0.1 1.1 -0.2
v 0.1 1.2 -0.2
v 0.1 1.3 -0.2
v 0.2 0.4 -0.2
v 0.2 0.5 -0.2
v 0.2 1.1 -0.2
v 0.2 1.3 -0.2
v -0.3 1 -0.3
v -0.3 1.1 -0.3
v -0.3 1.2 -0.3
v -0.2 0.8 -0.3
v -0.2 0.9 -0.3
v -0.2 1 -0.3
v -0.2 1.1 -0.3
v -0.2 1.2 -0.3
v -0.1 1 -0.3
v -0.1 1.1 -0.3
v 0 1 -0.3
v 0 1.1 -0.3
v 0.1 1 -0.3
v 0.1 1.1 -0.3
v 0.2 0.8 -0.3
v 0.2 1 -0.3
v 0.2 1.1 -0.3
v 0.3 1 -0.3
v 0.3 1.1 -0.3
v 0.3 1.7 -0.3
v 0.3 1.8 -0.3
v 0.4 1.7 -0.3
v 0.4 1.8 -0.3
v -0.4 1.2 -0.4
v -0.4 1.3 -0.4
v -0.4 2 -0.4
v -0.4 2.1 -0.4
v -0.3 0.7 -0.4
v -0.3 0.8 -0.4
v -0.3 0.9 -0.4
v -0.3 1 -0.4
v -0.3 1.2 -0.4
v -0.3 1.3 -0.4
v -0.3 2 -0.4
v -0.3 2.1 -0.4
v -0.2 0.9 -0.4
v -0.2 1 -0.4
v -0.2 1.2 -0.4
v -0.1 1 -0.4
v -0.1 1.1 -0.4
v 0 1 -0.4
v 0 1.1 -0.4
v 0 1.2 -0.4
v 0.1 1 -0.4
v 0.1 1.1 -0.4
v 0.2 1.1 -0.4
v 0.2 1.2 -0.4
v 0.2 1.3 -0.4
v 0.3 0.7 -0.4
v 0.3 0.8 -0.4
v 0.3 1 -0.4
v 0.3 1.1 -0.4
v 0.3 1.3 -0.4
v 0.3 1.4 -0.4
v 0.3 1.5 -0.4
v 0.3 1.6 -0.4
v 0.3 1.7 -0.4
v 0.4 1 -0.4
v 0.4 1.4 -0.4
v 0.4 1.5 -0.4
v 0.4 1.6 -0.4
v 0.4 1.7 -0.4
v -0.4 1.3 -0.5
v -0.4 2 -0.5
v -0.3 1.2 -0.5
v -0.3 1.3 -0.5
v -0.3 2 -0.5
v -0.3 2.1 -0.5
v -0.2 2.1 -0.5
v -0.2 2.2 -0.5
v -0.1 2.2 -0.5
v -0.1 2.4 -0.5
v 0 0.9 -0.5
v 0 1 -0.5
v 0 2.2 -0.5
v 0 2.4 -0.5
v 0.1 0.9 -0.5
v 0.1 1 -0.5
v 0.1 2.1 -0.5
v 0.1 2.2 -0.5
v 0.2 1.2 -0.5
v 0.2 1.3 -0.5
v 0.3 1.3 -0.5
v 0.3 2.1 -0.5
v 0 0.8 -0.6
v 0 0.9 -0.6
v 0.1 0.8 -0.6
v 0.1 0.9 -0.6
v -0.3 0.4 0.7
v -0.2 0.4 0.7
v -0.3 0.4 0.6
v -0.2 0.4 0.6
v 0 0.4 0.2
v 0.2 0.4 0.2
v 0 0.4 0.1
v 0.2 0.4 0.1
v 0 0.4 -0.1
v 0.2 0.4 -0.1
v 0 0.4 -0.2
v 0.2 0.4 -0.2
v -0.4 0.5 0.6
v -0.3 0.5 0.6
v -0.4 0.5 0.5
v -0.3 0.5 0.5
v -0.5 0.6 0.5
v -0.4 0.6 0.5
v -0.5 0.6 0.2
v -0.4 0.6 0.2
v -0.3 0.7 0.4
v 0.3 0.7 0.4
v -0.2 0.7 0.3
v 0.1 0.7 0.3
v -0.5 0.7 0.2
v -0.4 0.7 0.2
v 0.1 0.7 0.2
v 0.2 0.7 0.2
v -0.5 0.7 0.1
v -0.4 0.7 0.1
v -0.3 0.7 0.1
v -0.4 0.7 0
v -0.3 0.7 0
v 0.1 0.7 -0.2
v 0.2 0.7 -0.2
v -0.2 0.7 -0.3
v 0.1 0.7 -0.3
v -0.3 0.7 -0.4
v 0.3 0.7 -0.4
v 0 0.8 0.6
v 0.1 0.8 0.6
v 0 0.8 0.5
v 0.1 0.8 0.5
v -0.2 0.8 0.3
v 0.1 0.8 0.3
v -0.1 0.8 0.2
v 0 0.8 0.2
v 0.1 0.8 0.2
v 0.2 0.8 0.2
v 0 0.8 0.1
v 0.1 0.8 0.1
v 0 0.8 -0.1
v 0.1 0.8 -0.1
v -0.1 0.8 -0.2
v 0 0.8 -0.2
v 0.1 0.8 -0.2
v 0.2 0.8 -0.2
v -0.2 0.8 -0.3
v 0.1 0.8 -0.3
v 0 0.8 -0.5
v 0.1 0.8 -0.5
v 0 0.8 -0.6
v 0.1 0.8 -0.6
v 0 0.9 0.5
v 0.1 0.9 0.5
v -0.3 0.9 0.4
v -0.2 0.9 0.4
v 0 0.9 0.4
v 0.1 0.9 0.4
v -0.3 0.9 0.3
v -0.2 0.9 0.3
v -0.3 0.9 -0.3
v -0.2 0.9 -0.3
v -0.3 0.9 -0.4
v -0.2 0.9 -0.4
v 0 0.9 -0.4
v 0.1 0.9 -0.4
v 0 0.9 -0.5
v 0.1 0.9 -0.5
v -0.2 1 0.4
v -0.1 1 0.4
v 0 1 0.4
v 0.1 1 0.4
v 0.3 1 0.4
v 0.4 1 0.4
v -0.3 1 0.3
v -0.2 1 0.3
v -0.1 1 0.3
v 0 1 0.3
v 0.1 1 0.3
v 0.2 1 0.3
v 0.3 1 0.3
v 0.4 1 0.3
v -0.3 1 0.2
v -0.2 1 0.2
v 0.2 1 0.2
v 0.3 1 0.2
v -0.3 1 -0.2
v -0.2 1 -0.2
v 0.2 1 -0.2
v 0.3 1 -0.2
v -0.3 1 -0.3
v -0.2 1 -0.3
v -0.1 1 -0.3
v 0 1 -0.3
v 0.1 1 -0.3
v 0.2 1 -0.3
v 0.3 1 -0.3
v 0.4 1 -0.3
v -0.2 1 -0.4
v -0.1 1 -0.4
v 0 1 -0.4
v 0.1 1 -0.4
v 0.3 1 -0.4
v 0.4 1 -0.4
v -0.1 1.1 0.4
v 0 1.1 0.4
v 0.1 1.1 0.4
v 0.3 1.1 0.4
v -0.1 1.1 0.3
v 0 1.1 0.3
v 0.1 1.1 0.3
v 0.2 1.1 0.3
v 0.3 1.1 0.3
v -0.3 1.1 0.2
v -0.2 1.1 0.2
v -0.3 1.1 -0.2
v -0.2 1.1 -0.2
v -0.1 1.1 -0.3
v 0 1.1 -0.3
v 0.1 1.1 -0.3
v 0.2 1.1 -0.3
v 0.3 1.1 -0.3
v -0.1 1.1 -0.4
v 0 1.1 -0.4
v 0.1 1.1 -0.4
v 0.2 1.1 -0.4
v 0.3 1.1 -0.4
v -0.3 1.2 0.5
v 0.2 1.2 0.5
v -0.4 1.2 0.4
v -0.3 1.2 0.4
v -0.2 1.2 0.4
v 0.2 1.2 0.4
v -0.3 1.2 0.3
v -0.2 1.2 0.3
v -0.3 1.2 0.2
v -0.3 1.2 -0.2
v -0.3 1.2 -0.3
v -0.2 1.2 -0.3
v -0.4 1.2 -0.4
v -0.3 1.2 -0.4
v -0.2 1.2 -0.4
v 0 1.2 -0.4
v 0.2 1.2 -0.4
v -0.3 1.2 -0.5
v 0.2 1.2 -0.5
v -0.4 1.3 0.5
v -0.3 1.3 0.5
v 0.2 1.3 0.5
v 0.3 1.3 0.5
v -0.4 1.3 0.4
v -0.3 1.3 0.4
v 0.2 1.3 0.4
v 0.3 1.3 0.4
v 0 1.3 0.3
v 0.2 1.3 0.3
v 0 1.3 0.2
v 0.1 1.3 0.2
v 0.2 1.3 0.2
v 0.3 1.3 0.2
v 0 1.3 -0.2
v 0.1 1.3 -0.2
v 0.2 1.3 -0.2
v 0.3 1.3 -0.2
v 0 1.3 -0.3
v 0.2 1.3 -0.3
v -0.4 1.3 -0.4
v -0.3 1.3 -0.4
v 0.2 1.3 -0.4
v 0.3 1.3 -0.4
v -0.4 1.3 -0.5
v -0.3 1.3 -0.5
v 0.2 1.3 -0.5
v 0.3 1.3 -0.5
v 0.3 1.7 0.3
v 0.4 1.7 0.3
v 0.3 1.7 0.2
v 0.4 1.7 0.2
v 0.3 1.7 0
v 0.4 1.7 0
v 0.3 1.7 -0.1
v 0.3 1.7 -0.2
v 0.4 1.7 -0.2
v 0.3 1.7 -0.3
v 0.4 1.7 -0.3
v -0.3 0.5 0.7
v -0.2 0.5 0.7
v -0.3 0.5 0.6
v -0.2 0.5 0.6
v 0.1 0.5 0.2
v 0.2 0.5 0.2
v 0.1 0.5 0.1
v 0.2 0.5 0.1
v 0.1 0.5 -0.1
v 0.2 0.5 -0.1
v 0.1 0.5 -0.2
v 0.2 0.5 -0.2
v -0.4 0.6 0.6
v -0.3 0.6 0.6
v -0.4 0.6 0.5
v -0.3 0.6 0.5
v -0.5 0.7 0.5
v -0.4 0.7 0.5
v -0.5 0.7 0.2
v -0.4 0.7 0.2
v -0.3 0.8 0.4
v 0.3 0.8 0.4
v -0.2 0.8 0.3
v 0.2 0.8 0.3
v -0.5 0.8 0.2
v -0.4 0.8 0.2
v -0.5 0.8 0.1
v -0.4 0.8 0.1
v -0.3 0.8 0.1
v -0.4 0.8 0
v -0.3 0.8 0
v -0.2 0.8 -0.3
v 0.2 0.8 -0.3
v -0.3 0.8 -0.4
v 0.3 0.8 -0.4
v 0 0.9 0.6
v 0.1 0.9 0.6
v 0 0.9 0.5
v 0.1 0.9 0.5
v 0 0.9 -0.5
v 0.1 0.9 -0.5
v 0 0.9 -0.6
v 0.1 0.9 -0.6
v 0 1 0.5
v 0.1 1 0.5
v -0.3 1 0.4
v -0.2 1 0.4
v 0 1 0.4
v 0.1 1 0.4
v -0.3 1 0.3
v -0.2 1 0.3
v -0.3 1 -0.3
v -0.2 1 -0.3
v -0.3 1 -0.4
v -0.2 1 -0.4
v 0 1 -0.4
v 0.1 1 -0.4
v 0 1 -0.5
v 0.1 1 -0.5
v 0.1 1.1 0.3
v 0.2 1.1 0.3
v 0.1 1.1 0.2
v 0.2 1.1 0.2
v 0.1 1.1 -0.2
v 0.2 1.1 -0.2
v 0.1 1.1 -0.3
v 0.2 1.1 -0.3
v 0 1.2 0.3
v 0.1 1.2 0.3
v 0 1.2 0.2
v 0.1 1.2 0.2
v 0 1.2 -0.2
v 0.1 1.2 -0.2
v 0 1.2 -0.3
v 0.1 1.2 -0.3
v 0.3 1.7 0.4
v 0.4 1.7 0.4
v 0.3 1.7 0.3
v 0.4 1.7 0.3
v 0.3 1.7 -0.3
v 0.4 1.7 -0.3
v 0.3 1.7 -0.4
v 0.4 1.7 -0.4
v 0.3 1.8 0.3
v 0.4 1.8 0.3
v 0.3 1.8 0.2
v 0.4 1.8 0.2
v 0.3 1.8 0
v 0.4 1.8 0
v 0.3 1.8 -0.2
v 0.4 1.8 -0.2
v 0.3 1.8 -0.3
v 0.4 1.8 -0.3
v -0.4 2 0.5
v -0.3 2 0.5
v -0.4 2 0.4
v -0.3 2 0.4
v -0.4 2 0.2
v 0.3 2 0.2
v -0.4 2 -0.2
v 0.3 2 -0.2
v -0.4 2 -0.4
v -0.3 2 -0.4
v -0.4 2 -0.5
v -0.3 2 -0.5
v -0.3 2.1 0.5
v -0.2 2.1 0.5
v 0.1 2.1 0.5
v 0.3 2.1 0.5
v -0.4 2.1 0.4
v -0.3 2.1 0.4
v -0.4 2.1 0.2
v -0.2 2.1 0.2
v 0.1 2.1 0.2
v 0.3 2.1 0.2
v -0.4 2.1 -0.2
v -0.2 2.1 -0.2
v 0.1 2.1 -0.2
v 0.3 2.1 -0.2
v -0.4 2.1 -0.4
v -0.3 2.1 -0.4
v -0.3 2.1 -0.5
v -0.2 2.1 -0.5
v 0.1 2.1 -0.5
v 0.3 2.1 -0.5
v -0.2 2.2 0.5
v -0.1 2.2 0.5
v 0 2.2 0.5
v 0.1 2.2 0.5
v -0.1 2.2 0.3
v 0 2.2 0.3
v -0.2 2.2 0.2
v 0.1 2.2 0.2
v -0.2 2.2 -0.2
v 0.1 2.2 -0.2
v -0.1 2.2 -0.3
v 0 2.2 -0.3
v -0.2 2.2 -0.5
v -0.1 2.2 -0.5
v 0 2.2 -0.5
v 0.1 2.2 -0.5
v -0.1 2.3 0.4
v 0 2.3 0.4
v -0.1 2.3 0.3
v 0 2.3 0.3
v -0.1 2.3 -0.3
v 0 2.3 -0.3
v -0.1 2.3 -0.4
v 0 2.3 -0.4
v -0.1 2.4 0.5
v 0 2.4 0.5
v -0.1 2.4 0.4
v 0 2.4 0.4
v -0.1 2.4 -0.4
v 0 2.4 -0.4
v -0.1 2.4 -0.5
v 0 2.4 -0.5

# faces
f 3/7/1 2/7/1 1/7/1
f 4/7/1 2/7/1 3/7/1
f 6/7/1 5/7/1 4/7/1
f 7/7/1 5/7/1 6/7/1
f 10/7/1 9/7/1 8/7/1
f 11/7/1 9/7/1 10/7/1
f 14/7/1 13/7/1 12/7/1
f 15/7/1 13/7/1 14/7/1
f 19/7/1 17/7/1 16/7/1
f 20/7/1 17/7/1 19/7/1
f 22/7/1 19/7/1 18/7/1
f 22/7/1 21/7/1 20/7/1
f 22/7/1 20/7/1 19/7/1
f 23/7/1 21/7/1 22/7/1
f 24/7/1 21/7/1 23/7/1
f 25/7/1 21/7/1 24/7/1
f 26/7/1 21/7/1 25/7/1
f 27/7/1 21/7/1 26/7/1
f 28/7/1 24/7/1 23/7/1
f 29/7/1 24/7/1 28/7/1
f 30/7/1 26/7/1 25/7/1
f 31/7/1 26/7/1 30/7/1
f 34/7/1 33/7/1 32/7/1
f 35/7/1 33/7/1 34/7/1
f 40/4/1 37/4/1 36/4/1
f 41/4/1 37/4/1 40/4/1
f 42/4/1 39/4/1 38/4/1
f 43/4/1 39/4/1 42/4/1
f 48/3/1 45/3/1 44/3/1
f 49/3/1 45/3/1 48/3/1
f 52/3/1 47/3/1 46/3/1
f 53/3/1 47/3/1 52/3/1
f 54/3/1 50/3/1 49/3/1
f 55/3/1 50/3/1 54/3/1
f 56/3/1 52/3/1 51/3/1
f 57/3/1 52/3/1 56/3/1
f 60/2/1 55/2/1 54/2/1
f 61/3/1 56/3/1 55/3/1
f 61/2/1 55/2/1 60/2/1
f 62/2/1 57/2/1 56/2/1
f 62/3/1 56/3/1 61/3/1
f 63/2/1 57/2/1 62/2/1
f 66/7/1 59/7/1 58/7/1
f 67/7/1 59/7/1 66/7/1
f 68/7/1 65/7/1 64/7/1
f 69/7/1 65/7/1 68/7/1
f 74/7/1 71/7/1 70/7/1
f 75/7/1 71/7/1 74/7/1
f 76/7/1 73/7/1 72/7/1
f 77/7/1 73/7/1 76/7/1
f 80/4/1 79/4/1 78/4/1
f 81/4/1 79/4/1 80/4/1
f 83/4/1 81/4/1 80/4/1
f 84/4/1 81/4/1 83/4/1
f 85/4/1 81/4/1 84/4/1
f 86/4/1 81/4/1 85/4/1
f 88/3/1 83/3/1 82/3/1
f 89/4/1 85/4/1 84/4/1
f 90/4/1 85/4/1 89/4/1
f 91/3/1 87/3/1 86/3/1
f 92/3/1 88/3/1 82/3/1
f 93/3/1 88/3/1 92/3/1
f 94/3/1 87/3/1 91/3/1
f 95/3/1 87/3/1 94/3/1
f 100/7/1 97/7/1 96/7/1
f 101/7/1 97/7/1 100/7/1
f 102/7/1 99/7/1 98/7/1
f 103/7/1 99/7/1 102/7/1
f 108/7/1 105/7/1 104/7/1
f 109/7/1 105/7/1 108/7/1
f 110/7/1 107/7/1 106/7/1
f 111/7/1 107/7/1 110/7/1
f 112/7/1 108/7/1 104/7/1
f 113/7/1 108/7/1 112/7/1
f 114/7/1 107/7/1 111/7/1
f 115/7/1 107/7/1 114/7/1
f 120/3/1 117/3/1 116/3/1
f 121/3/1 117/3/1 120/3/1
f 122/3/1 119/3/1 118/3/1
f 123/3/1 119/3/1 122/3/1
f 126/1/1 121/1/1 120/1/1
f 127/1/1 121/1/1 126/1/1
f 128/1/1 123/1/1 122/1/1
f 129/1/1 123/1/1 128/1/1
f 132/1/1 125/1/1 124/1/1
f 133/1/1 125/1/1 132/1/1
f 136/1/1 131/1/1 130/1/1
f 137/1/1 131/1/1 136/1/1
f 138/1/1 134/1/1 133/1/1
f 139/1/1 134/1/1 138/1/1
f 142/1/1 136/1/1 135/1/1
f 143/1/1 136/1/1 142/1/1
f 144/1/1 140/1/1 139/1/1
f 145/1/1 140/1/1 144/1/1
f 146/1/1 142/1/1 141/1/1
f 147/1/1 142/1/1 146/1/1
f 152/4/1 149/4/1 148/4/1
f 153/4/1 149/4/1 152/4/1
f 154/4/1 151/4/1 150/4/1
f 155/4/1 151/4/1 154/4/1
f 158/4/1 157/4/1 156/4/1
f 159/4/1 157/4/1 158/4/1
f 164/3/1 163/3/1 162/3/1
f 165/3/1 161/3/1 160/3/1
f 166/3/1 161/3/1 165/3/1
f 167/3/1 164/3/1 162/3/1
f 168/3/1 164/3/1 167/3/1
f 173/3/1 170/3/1 169/3/1
f 174/3/1 170/3/1 173/3/1
f 175/3/1 172/3/1 171/3/1
f 176/3/1 172/3/1 175/3/1
f 177/7/2 178/7/2 179/7/2
f 179/7/2 178/7/2 180/7/2
f 180/7/2 181/7/2 182/7/2
f 182/7/2 181/7/2 183/7/2
f 184/7/2 185/7/2 186/7/2
f 186/7/2 185/7/2 187/7/2
f 188/7/2 189/7/2 190/7/2
f 190/7/2 189/7/2 191/7/2
f 192/4/2 193/4/2 194/4/2
f 194/4/2 193/4/2 195/4/2
f 196/3/2 197/3/2 200/3/2
f 200/3/2 197/3/2 201/3/2
f 198/3/2 199/3/2 202/3/2
f 202/3/2 199/3/2 203/3/2
f 204/3/2 205/3/2 208/3/2
f 208/3/2 205/3/2 209/3/2
f 206/3/2 207/3/2 210/3/2
f 210/3/2 207/3/2 211/3/2
f 212/1/2 213/1/2 216/1/2
f 216/1/2 213/1/2 217/1/2
f 214/1/2 215/1/2 218/1/2
f 218/1/2 215/1/2 219/1/2
f 220/7/2 221/7/2 224/7/2
f 224/7/2 221/7/2 225/7/2
f 222/7/2 223/7/2 226/7/2
f 226/7/2 223/7/2 227/7/2
f 220/7/2 224/7/2 228/7/2
f 228/7/2 224/7/2 229/7/2
f 227/7/2 223/7/2 230/7/2
f 230/7/2 223/7/2 231/7/2
f 232/3/2 233/3/2 236/3/2
f 236/3/2 233/3/2 237/3/2
f 234/3/2 235/3/2 238/3/2
f 238/3/2 235/3/2 239/3/2
f 236/1/2 237/1/2 242/1/2
f 242/1/2 237/1/2 243/1/2
f 238/1/2 239/1/2 244/1/2
f 244/1/2 239/1/2 245/1/2
f 240/1/2 241/1/2 248/1/2
f 248/1/2 241/1/2 249/1/2
f 246/1/2 247/1/2 252/1/2
f 252/1/2 247/1/2 253/1/2
f 249/1/2 250/1/2 254/1/2
f 254/1/2 250/1/2 255/1/2
f 251/1/2 252/1/2 258/1/2
f 258/1/2 252/1/2 259/1/2
f 255/1/2 256/1/2 260/1/2
f 260/1/2 256/1/2 261/1/2
f 257/1/2 258/1/2 264/1/2
f 264/1/2 258/1/2 265/1/2
f 261/1/2 262/1/2 266/1/2
f 266/1/2 262/1/2 267/1/2
f 263/1/2 264/1/2 268/1/2
f 268/1/2 264/1/2 269/1/2
f 270/7/2 271/7/2 274/7/2
f 274/7/2 271/7/2 275/7/2
f 272/7/2 273/7/2 276/7/2
f 276/7/2 273/7/2 277/7/2
f 278/3/2 279/3/2 282/3/2
f 282/3/2 279/3/2 283/3/2
f 280/3/2 281/3/2 284/3/2
f 284/3/2 281/3/2 285/3/2
f 286/4/2 287/4/2 288/4/2
f 288/4/2 287/4/2 289/4/2
f 289/4/2 287/4/2 290/4/2
f 290/4/2 287/4/2 291/4/2
f 292/7/2 293/7/2 296/7/2
f 296/7/2 293/7/2 297/7/2
f 289/4/2 290/4/2 298/4/2
f 298/4/2 290/4/2 299/4/2
f 294/7/2 295/7/2 300/7/2
f 300/7/2 295/7/2 301/7/2
f 302/4/2 303/4/2 304/4/2
f 304/4/2 303/4/2 305/4/2
f 306/3/2 307/3/2 310/3/2
f 310/3/2 307/3/2 313/3/2
f 308/3/2 309/3/2 314/3/2
f 310/3/2 313/3/2 317/3/2
f 313/1/2 314/1/2 318/1/2
f 317/3/2 313/3/2 318/3/2
f 314/3/2 309/3/2 319/3/2
f 318/1/2 314/1/2 319/1/2
f 319/3/2 309/3/2 320/3/2
f 315/7/2 316/7/2 321/7/2
f 311/7/2 312/7/2 322/7/2
f 319/1/2 320/1/2 323/1/2
f 317/1/2 318/1/2 323/1/2
f 318/1/2 319/1/2 323/1/2
f 323/1/2 320/1/2 324/1/2
f 324/1/2 320/1/2 325/1/2
f 325/1/2 320/1/2 326/1/2
f 326/1/2 320/1/2 327/1/2
f 327/1/2 320/1/2 328/1/2
f 321/7/2 316/7/2 329/7/2
f 327/1/2 328/1/2 330/1/2
f 329/7/2 316/7/2 331/7/2
f 311/7/2 322/7/2 332/7/2
f 323/1/2 324/1/2 333/1/2
f 324/5/2 325/5/2 334/5/2
f 333/1/2 324/1/2 334/1/2
f 325/1/2 326/1/2 335/1/2
f 334/5/2 325/5/2 335/5/2
f 335/1/2 326/1/2 336/1/2
f 326/5/2 327/5/2 337/5/2
f 336/1/2 326/1/2 337/1/2
f 327/1/2 330/1/2 338/1/2
f 337/5/2 327/5/2 338/5/2
f 338/1/2 330/1/2 339/1/2
f 331/7/2 316/7/2 340/7/2
f 311/7/2 332/7/2 341/7/2
f 332/2/2 333/2/2 341/2/2
f 341/2/2 333/2/2 342/2/2
f 334/1/2 335/1/2 343/1/2
f 335/1/2 336/1/2 343/1/2
f 343/1/2 336/1/2 344/1/2
f 339/3/2 340/3/2 346/3/2
f 340/7/2 316/7/2 347/7/2
f 346/3/2 340/3/2 347/3/2
f 344/7/2 345/7/2 348/7/2
f 345/7/2 346/7/2 348/7/2
f 346/7/2 347/7/2 348/7/2
f 341/7/2 342/7/2 348/7/2
f 343/7/2 344/7/2 348/7/2
f 342/7/2 343/7/2 348/7/2
f 311/7/2 341/7/2 348/7/2
f 348/7/2 347/7/2 349/7/2
f 349/7/2 347/7/2 350/7/2
f 347/7/2 316/7/2 351/7/2
f 350/7/2 347/7/2 351/7/2
f 311/7/2 348/7/2 352/7/2
f 348/6/2 349/6/2 352/6/2
f 349/7/2 350/7/2 353/7/2
f 352/6/2 349/6/2 353/6/2
f 353/7/2 350/7/2 354/7/2
f 354/7/2 350/7/2 355/7/2
f 350/6/2 351/6/2 356/6/2
f 355/7/2 350/7/2 356/7/2
f 351/7/2 316/7/2 357/7/2
f 356/6/2 351/6/2 357/6/2
f 311/7/2 352/7/2 358/7/2
f 352/7/2 353/7/2 358/7/2
f 353/7/2 354/7/2 358/7/2
f 358/7/2 354/7/2 359/7/2
f 355/7/2 356/7/2 360/7/2
f 356/7/2 357/7/2 360/7/2
f 357/7/2 316/7/2 361/7/2
f 360/7/2 357/7/2 361/7/2
f 362/3/2 363/3/2 366/3/2
f 366/3/2 363/3/2 367/3/2
f 364/3/2 365/3/2 368/3/2
f 368/3/2 365/3/2 369/3/2
f 366/2/2 367/2/2 370/2/2
f 370/2/2 367/2/2 371/2/2
f 368/2/2 369/2/2 372/2/2
f 372/2/2 369/2/2 373/2/2
f 372/3/2 373/3/2 374/3/2
f 374/3/2 373/3/2 375/3/2
f 370/3/2 371/3/2 376/3/2
f 376/3/2 371/3/2 377/3/2
f 374/2/2 375/2/2 381/2/2
f 381/2/2 375/2/2 382/2/2
f 377/2/2 378/2/2 383/2/2
f 383/2/2 378/2/2 384/2/2
f 379/2/2 380/2/2 385/2/2
f 380/3/2 381/3/2 386/3/2
f 385/2/2 380/2/2 386/2/2
f 386/3/2 381/3/2 387/3/2
f 390/7/3 389/7/3 388/7/3
f 391/7/3 389/7/3 390/7/3
f 394/7/3 393/7/3 392/7/3
f 395/7/3 393/7/3 394/7/3
f 398/1/3 397/1/3 396/1/3
f 399/1/3 397/1/3 398/1/3
f 402/7/3 401/7/3 400/7/3
f 403/7/3 401/7/3 402/7/3
f 407/7/3 405/7/3 404/7/3
f 408/7/3 405/7/3 407/7/3
f 410/7/3 407/7/3 406/7/3
f 410/7/3 409/7/3 408/7/3
f 410/7/3 408/7/3 407/7/3
f 412/7/3 411/7/3 410/7/3
f 416/7/3 412/7/3 410/7/3
f 416/7/3 413/7/3 412/7/3
f 417/7/3 413/7/3 416/7/3
f 418/1/3 415/1/3 414/1/3
f 419/1/3 415/1/3 418/1/3
f 420/7/3 410/7/3 406/7/3
f 420/7/3 416/7/3 410/7/3
f 421/7/3 416/7/3 420/7/3
f 422/7/3 420/7/3 406/7/3
f 423/7/3 420/7/3 422/7/3
f 424/7/3 420/7/3 423/7/3
f 425/7/3 420/7/3 424/7/3
f 434/7/3 427/7/3 426/7/3
f 435/7/3 427/7/3 434/7/3
f 436/7/3 429/7/3 428/7/3
f 437/7/3 429/7/3 436/7/3
f 438/3/3 433/3/3 432/3/3
f 439/3/3 433/3/3 438/3/3
f 441/3/3 440/3/3 439/3/3
f 442/3/3 440/3/3 441/3/3
f 444/3/3 440/3/3 442/3/3
f 445/1/3 444/1/3 443/1/3
f 446/3/3 440/3/3 444/3/3
f 446/1/3 444/1/3 445/1/3
f 447/3/3 440/3/3 446/3/3
f 449/4/3 431/4/3 430/4/3
f 450/4/3 431/4/3 449/4/3
f 452/3/3 448/3/3 447/3/3
f 452/3/3 447/3/3 446/3/3
f 453/3/3 448/3/3 452/3/3
f 454/3/3 448/3/3 453/3/3
f 457/3/3 452/3/3 451/3/3
f 457/3/3 453/3/3 452/3/3
f 458/2/3 455/2/3 454/2/3
f 458/3/3 453/3/3 457/3/3
f 458/2/3 454/2/3 453/2/3
f 459/3/3 456/3/3 455/3/3
f 459/2/3 455/2/3 458/2/3
f 460/3/3 456/3/3 459/3/3
f 466/3/3 462/3/3 461/3/3
f 467/2/3 463/2/3 462/2/3
f 467/3/3 462/3/3 466/3/3
f 468/2/3 463/2/3 467/2/3
f 469/4/3 465/4/3 464/4/3
f 469/4/3 466/4/3 465/4/3
f 471/4/3 469/4/3 464/4/3
f 471/1/3 470/1/3 469/1/3
f 472/1/3 470/1/3 471/1/3
f 473/4/3 471/4/3 464/4/3
f 475/4/3 473/4/3 464/4/3
f 475/4/3 474/4/3 473/4/3
f 476/4/3 474/4/3 475/4/3
f 477/4/3 474/4/3 476/4/3
f 478/3/3 477/3/3 476/3/3
f 479/3/3 477/3/3 478/3/3
f 482/2/3 481/2/3 480/2/3
f 483/2/3 481/2/3 482/2/3
f 486/7/3 485/7/3 484/7/3
f 487/7/3 485/7/3 486/7/3
f 493/3/3 489/3/3 488/3/3
f 494/1/3 490/1/3 489/1/3
f 494/3/3 489/3/3 493/3/3
f 495/1/3 490/1/3 494/1/3
f 497/1/3 492/1/3 491/1/3
f 498/1/3 492/1/3 497/1/3
f 499/3/3 493/3/3 488/3/3
f 500/3/3 493/3/3 499/3/3
f 501/4/3 498/4/3 497/4/3
f 501/4/3 497/4/3 496/4/3
f 502/4/3 498/4/3 501/4/3
f 505/7/3 504/7/3 503/7/3
f 506/7/3 504/7/3 505/7/3
f 509/2/3 508/2/3 507/2/3
f 510/2/3 508/2/3 509/2/3
f 514/3/3 512/3/3 511/3/3
f 515/1/3 513/1/3 512/1/3
f 515/3/3 512/3/3 514/3/3
f 516/1/3 513/1/3 515/1/3
f 517/3/3 514/3/3 511/3/3
f 518/3/3 514/3/3 517/3/3
f 523/3/3 522/3/3 521/3/3
f 524/3/3 522/3/3 523/3/3
f 525/7/3 520/7/3 519/7/3
f 529/7/3 526/7/3 525/7/3
f 529/7/3 525/7/3 519/7/3
f 530/7/3 526/7/3 529/7/3
f 531/4/3 528/4/3 527/4/3
f 532/4/3 528/4/3 531/4/3
f 535/3/3 534/3/3 533/3/3
f 536/3/3 534/3/3 535/3/3
f 537/7/3 529/7/3 519/7/3
f 538/7/3 529/7/3 537/7/3
f 543/3/3 540/3/3 539/3/3
f 544/3/3 540/3/3 543/3/3
f 549/7/3 546/7/3 545/7/3
f 550/7/3 546/7/3 549/7/3
f 551/4/3 542/4/3 541/4/3
f 552/4/3 542/4/3 551/4/3
f 554/1/3 548/1/3 547/1/3
f 555/2/3 554/2/3 553/2/3
f 556/1/3 548/1/3 554/1/3
f 556/2/3 554/2/3 555/2/3
f 557/1/3 548/1/3 556/1/3
f 563/3/3 559/3/3 558/3/3
f 564/2/3 560/2/3 559/2/3
f 564/3/3 559/3/3 563/3/3
f 565/3/3 561/3/3 560/3/3
f 565/2/3 560/2/3 564/2/3
f 566/2/3 562/2/3 561/2/3
f 566/3/3 561/3/3 565/3/3
f 567/2/3 562/2/3 566/2/3
f 572/7/3 569/7/3 568/7/3
f 573/7/3 569/7/3 572/7/3
f 574/1/3 571/1/3 570/1/3
f 575/1/3 571/1/3 574/1/3
f 578/1/3 577/1/3 576/1/3
f 579/1/3 577/1/3 578/1/3
f 580/7/4 581/7/4 582/7/4
f 582/7/4 581/7/4 583/7/4
f 584/7/4 585/7/4 586/7/4
f 586/7/4 585/7/4 587/7/4
f 588/1/4 589/1/4 590/1/4
f 590/1/4 589/1/4 591/1/4
f 592/7/4 593/7/4 596/7/4
f 596/7/4 593/7/4 597/7/4
f 594/1/4 595/1/4 598/1/4
f 598/1/4 595/1/4 599/1/4
f 600/3/4 601/3/4 604/3/4
f 604/3/4 601/3/4 605/3/4
f 606/7/4 607/7/4 610/7/4
f 610/7/4 607/7/4 611/7/4
f 602/4/4 603/4/4 612/4/4
f 612/4/4 603/4/4 613/4/4
f 608/3/4 609/3/4 615/3/4
f 614/3/4 615/3/4 616/3/4
f 615/3/4 609/3/4 617/3/4
f 616/3/4 615/3/4 617/3/4
f 618/3/4 619/3/4 623/3/4
f 619/2/4 620/2/4 624/2/4
f 623/3/4 619/3/4 624/3/4
f 620/2/4 621/2/4 624/2/4
f 621/3/4 622/3/4 625/3/4
f 624/2/4 621/2/4 625/2/4
f 625/3/4 622/3/4 626/3/4
f 627/7/4 628/7/4 629/7/4
f 629/7/4 628/7/4 630/7/4
f 633/3/4 634/3/4 635/3/4
f 635/3/4 634/3/4 636/3/4
f 631/7/4 632/7/4 637/7/4
f 637/7/4 638/7/4 641/7/4
f 631/7/4 637/7/4 641/7/4
f 641/7/4 638/7/4 642/7/4
f 639/4/4 640/4/4 643/4/4
f 643/4/4 640/4/4 644/4/4
f 645/3/4 646/3/4 647/3/4
f 647/3/4 646/3/4 648/3/4
f 631/7/4 641/7/4 651/7/4
f 651/7/4 641/7/4 652/7/4
f 649/2/4 650/2/4 653/2/4
f 653/2/4 650/2/4 654/2/4
f 655/7/4 656/7/4 657/7/4
f 657/7/4 656/7/4 658/7/4
f 659/3/4 660/3/4 662/3/4
f 660/1/4 661/1/4 663/1/4
f 662/3/4 660/3/4 663/3/4
f 663/1/4 661/1/4 664/1/4
f 659/3/4 662/3/4 665/3/4
f 665/3/4 662/3/4 666/3/4
f 667/7/4 668/7/4 669/7/4
f 669/7/4 668/7/4 670/7/4
f 671/3/4 672/3/4 676/3/4
f 672/1/4 673/1/4 677/1/4
f 676/3/4 672/3/4 677/3/4
f 677/1/4 673/1/4 678/1/4
f 674/1/4 675/1/4 680/1/4
f 680/1/4 675/1/4 681/1/4
f 671/3/4 676/3/4 682/3/4
f 682/3/4 676/3/4 683/3/4
f 680/4/4 681/4/4 684/4/4
f 679/4/4 680/4/4 684/4/4
f 684/4/4 681/4/4 685/4/4
f 686/3/4 687/3/4 691/3/4
f 687/2/4 688/2/4 692/2/4
f 691/3/4 687/3/4 692/3/4
f 692/2/4 688/2/4 693/2/4
f 689/4/4 690/4/4 694/4/4
f 690/4/4 691/4/4 694/4/4
f 689/4/4 694/4/4 696/4/4
f 694/1/4 695/1/4 696/1/4
f 696/1/4 695/1/4 697/1/4
f 689/4/4 696/4/4 698/4/4
f 689/4/4 698/4/4 700/4/4
f 698/4/4 699/4/4 700/4/4
f 700/4/4 699/4/4 701/4/4
f 701/4/4 699/4/4 702/4/4
f 701/3/4 702/3/4 703/3/4
f 703/3/4 702/3/4 704/3/4
f 705/3/4 706/3/4 707/3/4
f 707/3/4 706/3/4 708/3/4
f 709/7/4 710/7/4 717/7/4
f 717/7/4 710/7/4 718/7/4
f 711/7/4 712/7/4 719/7/4
f 719/7/4 712/7/4 720/7/4
f 715/3/4 716/3/4 721/3/4
f 721/3/4 716/3/4 722/3/4
f 722/3/4 723/3/4 724/3/4
f 724/3/4 723/3/4 725/3/4
f 725/3/4 723/3/4 727/3/4
f 727/3/4 723/3/4 728/3/4
f 726/1/4 727/1/4 729/1/4
f 727/2/4 728/2/4 730/2/4
f 729/1/4 727/1/4 730/1/4
f 730/2/4 728/2/4 731/2/4
f 731/2/4 728/2/4 732/2/4
f 713/4/4 714/4/4 734/4/4
f 734/4/4 714/4/4 735/4/4
f 732/3/4 733/3/4 737/3/4
f 731/3/4 732/3/4 737/3/4
f 737/3/4 733/3/4 738/3/4
f 736/3/4 737/3/4 743/3/4
f 737/3/4 738/3/4 743/3/4
f 738/3/4 739/3/4 743/3/4
f 739/2/4 740/2/4 744/2/4
f 743/3/4 739/3/4 744/3/4
f 740/3/4 741/3/4 745/3/4
f 744/2/4 740/2/4 745/2/4
f 741/2/4 742/2/4 746/2/4
f 745/3/4 741/3/4 746/3/4
f 746/2/4 742/2/4 747/2/4
f 748/7/4 749/7/4 751/7/4
f 751/7/4 749/7/4 752/7/4
f 750/7/4 751/7/4 754/7/4
f 752/7/4 753/7/4 754/7/4
f 751/7/4 752/7/4 754/7/4
f 754/7/4 755/7/4 756/7/4
f 754/7/4 756/7/4 760/7/4
f 756/7/4 757/7/4 760/7/4
f 760/7/4 757/7/4 761/7/4
f 758/1/4 759/1/4 762/1/4
f 762/1/4 759/1/4 763/1/4
f 750/7/4 754/7/4 764/7/4
f 754/7/4 760/7/4 764/7/4
f 764/7/4 760/7/4 765/7/4
f 750/7/4 764/7/4 766/7/4
f 766/7/4 764/7/4 767/7/4
f 767/7/4 764/7/4 768/7/4
f 768/7/4 764/7/4 769/7/4
f 770/1/4 771/1/4 772/1/4
f 772/1/4 771/1/4 773/1/4
f 776/7/5 775/7/5 774/7/5
f 777/7/5 775/7/5 776/7/5
f 780/3/5 779/3/5 778/3/5
f 781/3/5 779/3/5 780/3/5
f 784/3/5 783/3/5 782/3/5
f 785/3/5 783/3/5 784/3/5
f 788/7/5 787/7/5 786/7/5
f 789/7/5 787/7/5 788/7/5
f 792/7/5 791/7/5 790/7/5
f 793/7/5 791/7/5 792/7/5
f 796/4/5 795/4/5 794/4/5
f 797/4/5 795/4/5 796/4/5
f 800/4/5 795/4/5 797/4/5
f 801/4/5 795/4/5 800/4/5
f 802/7/5 799/7/5 798/7/5
f 803/7/5 799/7/5 802/7/5
f 804/4/5 796/4/5 794/4/5
f 805/7/5 804/7/5 803/7/5
f 806/4/5 796/4/5 804/4/5
f 806/7/5 804/7/5 805/7/5
f 808/4/5 795/4/5 801/4/5
f 809/4/5 796/4/5 806/4/5
f 810/4/5 808/4/5 807/4/5
f 811/4/5 809/4/5 806/4/5
f 811/4/5 810/4/5 809/4/5
f 812/4/5 808/4/5 810/4/5
f 812/4/5 810/4/5 811/4/5
f 812/4/5 795/4/5 808/4/5
f 815/1/5 814/1/5 813/1/5
f 816/1/5 814/1/5 815/1/5
f 819/4/5 818/4/5 817/4/5
f 820/4/5 818/4/5 819/4/5
f 821/4/5 818/4/5 820/4/5
f 823/1/5 820/1/5 819/1/5
f 824/4/5 822/4/5 821/4/5
f 825/1/5 823/1/5 819/1/5
f 825/1/5 824/1/5 823/1/5
f 826/4/5 822/4/5 824/4/5
f 826/1/5 824/1/5 825/1/5
f 827/1/5 825/1/5 819/1/5
f 827/4/5 819/4/5 817/4/5
f 828/1/5 825/1/5 827/1/5
f 829/4/5 822/4/5 826/4/5
f 830/4/5 822/4/5 829/4/5
f 831/4/5 828/4/5 827/4/5
f 831/4/5 827/4/5 817/4/5
f 831/4/5 829/4/5 828/4/5
f 832/4/5 829/4/5 831/4/5
f 835/1/5 834/1/5 833/1/5
f 836/1/5 834/1/5 835/1/5
f 841/1/5 838/1/5 837/1/5
f 842/1/5 838/1/5 841/1/5
f 843/3/5 840/3/5 839/3/5
f 844/3/5 840/3/5 843/3/5
f 847/3/5 846/3/5 845/3/5
f 848/3/5 846/3/5 847/3/5
f 851/1/5 850/1/5 849/1/5
f 852/1/5 850/1/5 851/1/5
f 860/3/5 854/3/5 853/3/5
f 861/3/5 854/3/5 860/3/5
f 862/1/5 856/1/5 855/1/5
f 863/1/5 856/1/5 862/1/5
f 865/3/5 858/3/5 857/3/5
f 866/3/5 858/3/5 865/3/5
f 867/3/5 860/3/5 859/3/5
f 868/3/5 860/3/5 867/3/5
f 869/3/5 865/3/5 864/3/5
f 870/3/5 865/3/5 869/3/5
f 875/3/5 872/3/5 871/3/5
f 876/3/5 872/3/5 875/3/5
f 880/3/5 874/3/5 873/3/5
f 881/3/5 874/3/5 880/3/5
f 883/3/5 877/3/5 876/3/5
f 884/3/5 877/3/5 883/3/5
f 885/1/5 879/1/5 878/1/5
f 886/1/5 879/1/5 885/1/5
f 887/3/5 882/3/5 881/3/5
f 888/3/5 882/3/5 887/3/5
f 893/3/5 890/3/5 889/3/5
f 894/3/5 890/3/5 893/3/5
f 895/3/5 892/3/5 891/3/5
f 896/3/5 892/3/5 895/3/5
f 897/3/5 892/3/5 896/3/5
f 900/3/5 899/3/5 898/3/5
f 901/3/5 899/3/5 900/3/5
f 907/3/5 903/3/5 902/3/5
f 908/3/5 903/3/5 907/3/5
f 909/2/5 905/2/5 904/2/5
f 910/3/5 906/3/5 905/3/5
f 910/2/5 905/2/5 909/2/5
f 911/3/5 906/3/5 910/3/5
f 915/7/5 913/7/5 912/7/5
f 916/7/5 913/7/5 915/7/5
f 917/7/5 913/7/5 916/7/5
f 918/7/5 915/7/5 914/7/5
f 918/7/5 916/7/5 915/7/5
f 919/7/5 916/7/5 918/7/5
f 920/7/5 918/7/5 914/7/5
f 921/7/5 920/7/5 914/7/5
f 922/7/5 921/7/5 914/7/5
f 924/7/5 922/7/5 914/7/5
f 924/7/5 923/7/5 922/7/5
f 925/7/5 923/7/5 924/7/5
f 926/7/5 923/7/5 925/7/5
f 929/7/5 926/7/5 925/7/5
f 929/7/5 928/7/5 927/7/5
f 929/7/5 927/7/5 926/7/5
f 930/7/5 928/7/5 929/7/5
f 935/7/5 932/7/5 931/7/5
f 936/7/5 932/7/5 935/7/5
f 937/7/5 934/7/5 933/7/5
f 938/7/5 934/7/5 937/7/5
f 941/1/5 940/1/5 939/1/5
f 942/1/5 940/1/5 941/1/5
f 943/1/5 940/1/5 942/1/5
f 947/1/5 944/1/5 943/1/5
f 948/1/5 944/1/5 947/1/5
f 949/1/5 946/1/5 945/1/5
f 949/1/5 947/1/5 946/1/5
f 950/1/5 947/1/5 949/1/5
f 955/7/5 952/7/5 951/7/5
f 956/7/5 952/7/5 955/7/5
f 957/7/5 954/7/5 953/7/5
f 958/7/5 954/7/5 957/7/5
f 961/2/5 960/2/5 959/2/5
f 962/2/5 960/2/5 961/2/5
f 965/2/5 964/2/5 963/2/5
f 966/2/5 964/2/5 965/2/5
f 967/2/5 964/2/5 966/2/5
f 968/3/5 967/3/5 966/3/5
f 969/3/5 967/3/5 968/3/5
f 970/7/6 971/7/6 972/7/6
f 972/7/6 971/7/6 973/7/6
f 974/3/6 975/3/6 976/3/6
f 976/3/6 975/3/6 977/3/6
f 978/3/6 979/3/6 980/3/6
f 980/3/6 979/3/6 981/3/6
f 982/7/6 983/7/6 984/7/6
f 984/7/6 983/7/6 985/7/6
f 986/7/6 987/7/6 988/7/6
f 988/7/6 987/7/6 989/7/6
f 990/4/6 991/4/6 992/4/6
f 992/4/6 991/4/6 993/4/6
f 994/7/6 995/7/6 996/7/6
f 996/7/6 995/7/6 997/7/6
f 990/4/6 992/4/6 998/4/6
f 997/7/6 998/7/6 999/7/6
f 998/4/6 992/4/6 1000/4/6
f 999/7/6 998/7/6 1000/7/6
f 1000/4/6 992/4/6 1001/4/6
f 993/4/6 991/4/6 1002/4/6
f 1000/4/6 1001/4/6 1003/4/6
f 1001/4/6 1002/4/6 1003/4/6
f 1002/4/6 991/4/6 1004/4/6
f 1003/4/6 1002/4/6 1004/4/6
f 1005/1/6 1006/1/6 1007/1/6
f 1007/1/6 1006/1/6 1008/1/6
f 1009/1/6 1010/1/6 1011/1/6
f 1011/1/6 1010/1/6 1012/1/6
f 1013/1/6 1014/1/6 1017/1/6
f 1017/1/6 1014/1/6 1018/1/6
f 1015/3/6 1016/3/6 1019/3/6
f 1019/3/6 1016/3/6 1020/3/6
f 1021/3/6 1022/3/6 1023/3/6
f 1023/3/6 1022/3/6 1024/3/6
f 1025/1/6 1026/1/6 1027/1/6
f 1027/1/6 1026/1/6 1028/1/6
f 1029/4/6 1030/4/6 1031/4/6
f 1031/4/6 1030/4/6 1032/4/6
f 1033/4/6 1034/4/6 1035/4/6
f 1035/4/6 1034/4/6 1036/4/6
f 1037/1/6 1038/1/6 1039/1/6
f 1039/1/6 1038/1/6 1040/1/6
f 1041/1/6 1042/1/6 1043/1/6
f 1043/1/6 1042/1/6 1044/1/6
f 1045/3/6 1046/3/6 1047/3/6
f 1047/3/6 1046/3/6 1048/3/6
f 1049/2/6 1050/2/6 1051/2/6
f 1051/2/6 1050/2/6 1052/2/6
f 1053/2/6 1054/2/6 1055/2/6
f 1055/2/6 1054/2/6 1056/2/6
f 1057/2/6 1058/2/6 1059/2/6
f 1059/2/6 1058/2/6 1060/2/6
f 1059/3/6 1060/3/6 1061/3/6
f 1061/3/6 1060/3/6 1062/3/6
f 1063/7/6 1064/7/6 1065/7/6
f 1065/7/6 1064/7/6 1066/7/6
f 1067/7/6 1068/7/6 1069/7/6
f 1069/7/6 1068/7/6 1070/7/6
f 1071/7/6 1072/7/6 1073/7/6
f 1073/7/6 1072/7/6 1074/7/6
f 1075/7/6 1076/7/6 1080/7/6
f 1079/7/6 1080/7/6 1081/7/6
f 1080/7/6 1076/7/6 1082/7/6
f 1081/7/6 1080/7/6 1082/7/6
f 1077/7/6 1078/7/6 1083/7/6
f 1083/7/6 1078/7/6 1084/7/6
f 1085/7/6 1086/7/6 1089/7/6
f 1089/7/6 1086/7/6 1090/7/6
f 1090/7/6 1086/7/6 1091/7/6
f 1091/7/6 1086/7/6 1092/7/6
f 1087/7/6 1088/7/6 1093/7/6
f 1093/7/6 1088/7/6 1094/7/6
f 1095/7/6 1096/7/6 1099/7/6
f 1097/7/6 1098/7/6 1100/7/6
f 1095/7/6 1099/7/6 1101/7/6
f 1099/7/6 1100/7/6 1101/7/6
f 1100/7/6 1098/7/6 1102/7/6
f 1101/7/6 1100/7/6 1102/7/6
f 1103/7/6 1104/7/6 1105/7/6
f 1105/7/6 1104/7/6 1106/7/6
f 1103/7/6 1105/7/6 1107/7/6
f 1107/7/6 1105/7/6 1108/7/6
f 1106/7/6 1104/7/6 1109/7/6
f 1109/7/6 1104/7/6 1110/7/6
f 1111/7/6 1112/7/6 1113/7/6
f 1113/7/6 1112/7/6 1114/7/6
f 1115/7/6 1116/7/6 1117/7/6
f 1117/7/6 1116/7/6 1118/7/6
f 1119/7/6 1120/7/6 1121/7/6
f 1121/7/6 1120/7/6 1122/7/6
f 1123/7/6 1124/7/6 1125/7/6
f 1125/7/6 1124/7/6 1126/7/6
